<?xml version="1.0" standalone="no"?>
<!DOCTYPE svg PUBLIC "-//W3C//DTD SVG 20010904//EN"
 "http://www.w3.org/TR/2001/REC-SVG-20010904/DTD/svg10.dtd">
<svg version="1.0" xmlns="http://www.w3.org/2000/svg"
 width="700.000000pt" height="700.000000pt" viewBox="0 0 700.000000 700.000000"
 preserveAspectRatio="xMidYMid meet">
<metadata>
Created by potrace 1.11, written by Peter Selinger 2001-2013
</metadata>
<g transform="translate(0.000000,700.000000) scale(0.100000,-0.100000)"
fill="#000000" stroke="none">
<path d="M875 4963 c-1 -159 2 -290 6 -293 6 -4 5144 -5 5224 -1 20 1 20 8 20
291 l0 290 -2625 0 -2625 0 0 -287z"/>
<path d="M875 3500 l0 -290 2625 0 2625 0 0 290 0 290 -2625 0 -2625 0 0 -290z"/>
<path d="M889 2332 c-12 -2 -14 -49 -14 -292 l0 -290 1750 0 1750 0 -1 283
c-1 155 -2 287 -3 292 -1 7 -586 10 -1734 10 -953 0 -1740 -1 -1748 -3z"/>
</g>
</svg>
